<?xml version="1.0" encoding="utf-8"?>
<!-- Generator: Adobe Illustrator 23.1.0, SVG Export Plug-In . SVG Version: 6.00 Build 0)  -->
<svg version="1.1" id="レイヤー_1" xmlns="http://www.w3.org/2000/svg" xmlns:xlink="http://www.w3.org/1999/xlink" x="0px"
	 y="0px" viewBox="0 0 300 100.8" style="enable-background:new 0 0 300 100.8;" xml:space="preserve">
<style type="text/css">
	.st0{fill:#231815;}
	.st1{fill:#A9CE52;}
	.st2{fill:#C8C9CA;}
</style>
<g>
	<g>
		<path class="st0" d="M117.7,39v10.4h10.1v2.3h-10.1v12.5h-2.6V36.6h13.4V39H117.7z"/>
		<path class="st0" d="M180,64.2l-4.2-7.9c-0.4-0.8-0.8-1.4-1.2-2c-0.4-0.5-0.8-0.9-1.2-1.3s-0.8-0.5-1.3-0.7
			c-0.5-0.1-1-0.2-1.6-0.2h-3v12H165V36.6h7.9c1,0,2,0.2,3,0.5c1,0.3,1.8,0.8,2.6,1.4c0.8,0.6,1.4,1.4,1.8,2.3
			c0.5,0.9,0.7,2,0.7,3.2c0,1-0.1,1.9-0.4,2.7c-0.3,0.8-0.7,1.5-1.3,2.2c-0.5,0.6-1.2,1.2-2,1.6c-0.8,0.4-1.7,0.8-2.6,1v0.1
			c0.4,0.2,0.7,0.4,1,0.6c0.3,0.2,0.6,0.5,0.9,0.9c0.3,0.3,0.6,0.7,0.9,1.2c0.3,0.4,0.6,1,0.9,1.5l4.6,8.5H180z M167.6,39v10.9h4.6
			c0.9,0,1.8-0.1,2.5-0.4c0.8-0.3,1.4-0.7,2-1.2c0.5-0.5,1-1.1,1.3-1.8c0.3-0.7,0.5-1.5,0.5-2.4c0-1.6-0.5-2.9-1.5-3.8
			c-1-0.9-2.5-1.4-4.5-1.4H167.6z"/>
		<path class="st0" d="M230.1,64.7c-2,0-3.8-0.4-5.4-1.1c-1.6-0.7-2.9-1.7-4-3c-1.1-1.3-2-2.7-2.6-4.4s-0.9-3.5-0.9-5.5
			c0-2.2,0.3-4.1,0.9-5.9c0.6-1.8,1.5-3.3,2.6-4.6c1.1-1.3,2.5-2.3,4.2-3c1.7-0.7,3.5-1.1,5.7-1.1c1.9,0,3.7,0.3,5.2,1
			c1.6,0.7,2.9,1.7,4,2.9c1.1,1.2,1.9,2.7,2.5,4.4s0.9,3.5,0.9,5.5c0,2.1-0.3,4-0.9,5.8c-0.6,1.8-1.4,3.3-2.5,4.6
			c-1.1,1.3-2.5,2.3-4.1,3.1C234,64.3,232.2,64.7,230.1,64.7z M230.3,38.5c-1.7,0-3.1,0.3-4.4,1c-1.3,0.6-2.4,1.5-3.3,2.6
			c-0.9,1.1-1.6,2.4-2,3.8c-0.5,1.5-0.7,3-0.7,4.6c0,1.6,0.2,3.1,0.6,4.5c0.4,1.4,1,2.7,1.9,3.8c0.8,1.1,1.9,2,3.2,2.6
			c1.3,0.7,2.8,1,4.5,1c1.7,0,3.2-0.3,4.5-0.9c1.3-0.6,2.4-1.4,3.3-2.5c0.9-1.1,1.5-2.3,2-3.8c0.4-1.5,0.7-3.1,0.7-4.8
			c0-1.6-0.2-3.1-0.6-4.6c-0.4-1.4-1-2.7-1.8-3.8c-0.8-1.1-1.9-1.9-3.2-2.6C233.6,38.8,232.1,38.5,230.3,38.5z"/>
		<path class="st0" d="M300,62.3c-2.8,1.6-5.8,2.4-9,2.4c-2,0-3.8-0.3-5.4-1c-1.6-0.7-2.9-1.6-4.1-2.9c-1.1-1.2-2-2.7-2.6-4.4
			s-0.9-3.6-0.9-5.6c0-1.3,0.1-2.6,0.4-3.9c0.3-1.2,0.7-2.4,1.3-3.5c0.6-1.1,1.2-2.1,2-3c0.8-0.9,1.7-1.6,2.8-2.3
			c1-0.6,2.2-1.1,3.5-1.5s2.6-0.5,4.1-0.5c2.7,0,5.2,0.5,7.3,1.5v2.8c-2.4-1.3-4.9-2-7.6-2c-1.7,0-3.2,0.3-4.6,0.9
			c-1.4,0.6-2.5,1.5-3.5,2.5c-1,1.1-1.7,2.3-2.2,3.8c-0.5,1.5-0.8,3.1-0.8,4.8c0,1.7,0.2,3.3,0.7,4.7c0.5,1.4,1.1,2.7,2,3.7
			c0.9,1.1,2,1.9,3.3,2.5c1.3,0.6,2.8,0.9,4.6,0.9c2.3,0,4.4-0.5,6.1-1.5v-8.4h-6.3v-2.3h8.8V62.3z"/>
	</g>
	<g>
		
			<rect x="16.5" y="31.1" transform="matrix(-0.7071 -0.7071 0.7071 -0.7071 38.4941 92.9326)" class="st1" width="44.1" height="14.7"/>
		<polygon class="st2" points="69.7,59.3 48.9,80 28.1,59.3 17.7,69.7 48.9,100.8 80,69.7 		"/>
		<path class="st1" d="M7.3,38.5c0,0-3.8,3.8-5.2,5.2c-2.9,2.9-2.9,7.5,0,10.4c1.4,1.4,5.2,5.2,5.2,5.2l10.4-10.4L7.3,38.5z"/>
		<path class="st1" d="M95.6,43.7c-0.6-0.6-41-41-41.5-41.5c-2.9-2.9-7.5-2.9-10.4,0c-0.5,0.5-5.2,5.2-5.2,5.2l0,0l0,0l51.9,51.9
			c0,0,3.8-3.8,5.2-5.2C98.5,51.2,98.5,46.5,95.6,43.7z"/>
	</g>
</g>
</svg>
